<?xml version="1.0" encoding="UTF-8" standalone="no"?>
<!-- Created with Inkscape (http://www.inkscape.org/) -->

<svg
   width="116.69582mm"
   height="91.823524mm"
   viewBox="0 0 116.69582 91.823524"
   version="1.1"
   id="svg3330"
   inkscape:version="1.1.2 (0a00cf5339, 2022-02-04)"
   sodipodi:docname="ChrismasHat_2026.svg"
   xmlns:inkscape="http://www.inkscape.org/namespaces/inkscape"
   xmlns:sodipodi="http://sodipodi.sourceforge.net/DTD/sodipodi-0.dtd"
   xmlns="http://www.w3.org/2000/svg"
   xmlns:svg="http://www.w3.org/2000/svg">
  <sodipodi:namedview
     id="namedview3332"
     pagecolor="#ffffff"
     bordercolor="#666666"
     borderopacity="1.0"
     inkscape:pageshadow="2"
     inkscape:pageopacity="0.0"
     inkscape:pagecheckerboard="0"
     inkscape:document-units="mm"
     showgrid="false"
     inkscape:zoom="0.69664703"
     inkscape:cx="88.997724"
     inkscape:cy="538.29269"
     inkscape:window-width="1920"
     inkscape:window-height="1043"
     inkscape:window-x="0"
     inkscape:window-y="0"
     inkscape:window-maximized="1"
     inkscape:current-layer="layer1" />
  <defs
     id="defs3327" />
  <g
     inkscape:label="Layer 1"
     inkscape:groupmode="layer"
     id="layer1"
     transform="translate(-5.3296329,-6.1794316)">
    <g
       id="g11198"
       transform="translate(-37.841567,-31.681761)">
      <path
         style="fill:#ff0000;fill-opacity:1;stroke:#000000;stroke-width:0.665;stroke-linecap:butt;stroke-linejoin:miter;stroke-miterlimit:4;stroke-dasharray:none;stroke-opacity:1"
         d="M 74.380553,38.231748 C 119.37503,47.890424 140.53258,79.514646 159.24999,125.3488 118.78603,107.72176 99.02326,109.62845 72.753071,105.39471 103.2358,98.036093 115.71973,72.082963 78.502326,51.038135 62.301363,41.877194 66.243556,55.168321 53.034865,64.798139 60.016546,49.673704 62.252801,37.417822 74.380553,38.231748 Z"
         id="path4212"
         sodipodi:nodetypes="cccscc" />
      <path
         id="path7610-06"
         style="fill:#ffffff;stroke:#000000;stroke-width:2.51339;stroke-linecap:round;stroke-linejoin:round"
         d="m 286.80078,394.83008 a 24.030425,19.478016 0 0 0 -11.68359,3.42969 l -0.14453,0.082 a 24.030425,19.478016 0 0 0 -5.7461,27.125 24.030425,19.478016 0 0 0 32.63086,5.09375 28.033273,24.842768 0 0 0 3.46094,6.05273 28.033273,24.842768 0 0 0 39.02344,6.00195 28.033273,24.842768 0 0 0 4.45312,-3.45312 27.247117,21.820466 0 0 0 0.58789,0.79101 27.247117,21.820466 0 0 0 37.92969,5.27344 27.247117,21.820466 0 0 0 5.17773,-3.80859 20.289862,24.857488 87.193985 0 0 33.84375,1.32617 22.580682,23.095021 0 0 0 2.63477,5.29688 22.580682,23.095021 0 0 0 28.36914,7.40039 26.44312,21.995485 0 0 0 36.38281,4.88867 26.44312,21.995485 0 0 0 2.92578,-1.99414 21.847363,17.047557 0 0 0 24.71485,4.92187 23.608995,20.53014 0 0 0 4.22851,11.86524 23.608995,20.53014 0 0 0 32.86524,4.96093 23.608995,20.53014 0 0 0 2.71094,-1.94336 22.05381,19.295256 0 0 0 1.70507,2.5586 22.05381,19.295256 0 0 0 30.69922,4.66406 22.05381,19.295256 0 0 0 5.38672,-26.85156 22.05381,19.295256 0 0 0 -30.67969,-4.76367 l -0.13476,0.082 a 22.05381,19.295256 0 0 0 -1.64649,1.22265 23.608995,20.53014 0 0 0 -2.27343,-3.53906 23.608995,20.53014 0 0 0 -29.31446,-6.83203 21.847363,17.047557 0 0 0 -3.64648,-7 21.847363,17.047557 0 0 0 -28.91016,-4.87305 26.44312,21.995485 0 0 0 -2.17187,-3.08789 26.44312,21.995485 0 0 0 -33.49414,-7.03515 22.580682,23.095021 0 0 0 -0.76758,-1.20313 22.580682,23.095021 0 0 0 -31.41406,-5.69922 l -0.13672,0.0977 a 22.580682,23.095021 0 0 0 -1.80664,1.56836 20.289862,24.857488 87.193985 0 0 -2.66602,-3.33008 20.289862,24.857488 87.193985 0 0 -34.92383,-2.35156 l -0.14258,0.0976 a 20.289862,24.857488 87.193985 0 0 -2.15624,1.73633 27.247117,21.820466 0 0 0 -36.60938,-4.12695 l -0.16602,0.0937 a 27.247117,21.820466 0 0 0 -2.55468,1.70508 28.033273,24.842768 0 0 0 -2.15235,-3.22852 28.033273,24.842768 0 0 0 -39,-6.13281 l -0.16992,0.10547 a 28.033273,24.842768 0 0 0 -2.70117,1.99609 24.030425,19.478016 0 0 0 -0.76953,-0.94726 24.030425,19.478016 0 0 0 -21.74805,-8.23633 z"
         transform="scale(0.26458333)" />
      <path
         id="path9653-4-06-1"
         style="fill:#ffffff;stroke:#000000;stroke-width:0.665;stroke-linecap:round;stroke-linejoin:round;stroke-miterlimit:4;stroke-dasharray:none"
         d="m 51.558371,53.886289 a 5.7481309,6.4612567 0 0 0 -3.169536,1.15987 l -0.03496,0.0276 a 5.7481309,6.4612567 0 0 0 -2.419851,5.25711 2.989935,3.4971975 0 0 0 -1.144521,0.56068 l -0.01808,0.0148 a 2.989935,3.4971975 0 0 0 -0.714924,4.87008 2.989935,3.4971975 0 0 0 1.338221,1.22576 4.7762696,4.5526507 0 0 0 0.287939,4.79669 4.7762696,4.5526507 0 0 0 5.350879,1.7116 5.7481309,6.4612567 0 0 0 1.712161,-0.22088 2.6471145,3.0504958 0 0 0 0.190887,0.36451 2.6471145,3.0504958 0 0 0 3.684933,0.73724 2.6471145,3.0504958 0 0 0 1.123825,-2.55977 4.1852893,6.6419796 0 0 0 3.767115,-0.83897 4.1852893,6.6419796 0 0 0 1.022353,-9.24317 4.1852893,6.6419796 0 0 0 -3.145022,-2.81505 3.723927,3.8525347 0 0 0 -0.669312,-2.03929 3.723927,3.8525347 0 0 0 -3.478373,-1.61545 5.7481309,6.4612567 0 0 0 -3.683727,-1.39335 z" />
    </g>
  </g>
</svg>
